<?xml version="1.0" standalone="no"?>
<!DOCTYPE svg PUBLIC "-//W3C//DTD SVG 20010904//EN"
 "http://www.w3.org/TR/2001/REC-SVG-20010904/DTD/svg10.dtd">
<svg version="1.0" xmlns="http://www.w3.org/2000/svg"
 width="256.000000pt" height="256.000000pt" viewBox="0 0 256.000000 256.000000"
 preserveAspectRatio="xMidYMid meet">
<metadata>
Created by potrace 1.11, written by Peter Selinger 2001-2013
</metadata>
<g transform="translate(0.000000,256.000000) scale(0.100000,-0.100000)"
fill="#000000" stroke="none">
<path d="M1180 1991 c-41 -15 -257 -92 -480 -171 -223 -79 -411 -147 -418
-153 -7 -6 -29 -39 -50 -74 -20 -36 -42 -72 -47 -81 -6 -9 -24 -39 -40 -67
-17 -27 -34 -57 -40 -66 -94 -157 -100 -178 -59 -206 25 -16 30 -16 120 14
l94 31 0 -409 c0 -472 -10 -429 110 -471 41 -15 261 -93 489 -173 229 -81 424
-145 435 -142 45 10 962 339 983 353 16 10 23 25 24 47 0 17 1 176 2 351 l2
319 100 34 c108 37 135 55 135 87 0 21 -238 429 -263 452 -7 6 -79 35 -162 64
-82 29 -213 75 -290 102 -77 28 -189 67 -250 88 -60 21 -148 52 -194 69 -46
17 -94 31 -105 30 -12 0 -55 -13 -96 -28z"/>
</g>
</svg>
